<svg width="16" height="15" viewBox="0 0 16 15" fill="none" xmlns="http://www.w3.org/2000/svg">
<path d="M14.3839 1.66667H13.5758V0.833333C13.5758 0.366667 13.2202 0 12.7677 0C12.3152 0 11.9596 0.366667 11.9596 0.833333V1.66667H8.72729V0.833333C8.72729 0.366667 8.37174 0 7.91921 0C7.46669 0 7.11113 0.366667 7.11113 0.833333V1.66667H3.87879V0.833333C3.87879 0.366667 3.52324 0 3.07071 0C2.61819 0 2.26263 0.366667 2.26263 0.833333V1.66667H1.61616C0.727273 1.66667 0 2.41667 0 3.33333V13.3333C0 14.25 0.727273 15 1.61616 15H14.3839C15.2728 15 16 14.25 16 13.3333V3.33333C16 2.41667 15.2728 1.66667 14.3839 1.66667ZM4.28284 12.5H3.47475C3.02223 12.5 2.66667 12.1333 2.66667 11.6667C2.66667 11.2 3.02223 10.8333 3.47475 10.8333C3.47475 10.8333 4.02425 10.8333 4.28284 10.8333C4.73537 10.8333 5.09093 11.2 5.09093 11.6667C5.09093 12.1333 4.73537 12.5 4.28284 12.5ZM4.28284 9.16667H3.47475C3.02223 9.16667 2.66667 8.8 2.66667 8.33333C2.66667 7.86667 3.02223 7.5 3.47475 7.5C3.47475 7.5 4.02425 7.5 4.28284 7.5C4.73537 7.5 5.09093 7.86667 5.09093 8.33333C5.09093 8.8 4.73537 9.16667 4.28284 9.16667ZM8.32325 12.5H7.51517C7.06265 12.5 6.70709 12.1333 6.70709 11.6667C6.70709 11.2 7.06265 10.8333 7.51517 10.8333C7.51517 10.8333 8.06467 10.8333 8.32325 10.8333C8.77578 10.8333 9.13134 11.2 9.13134 11.6667C9.13134 12.1333 8.77578 12.5 8.32325 12.5ZM8.32325 9.16667H7.51517C7.06265 9.16667 6.70709 8.8 6.70709 8.33333C6.70709 7.86667 7.06265 7.5 7.51517 7.5C7.51517 7.5 8.06467 7.5 8.32325 7.5C8.77578 7.5 9.13134 7.86667 9.13134 8.33333C9.13134 8.8 8.77578 9.16667 8.32325 9.16667ZM12.3637 12.5H11.5556C11.1031 12.5 10.7475 12.1333 10.7475 11.6667C10.7475 11.2 11.1031 10.8333 11.5556 10.8333C11.5556 10.8333 12.1051 10.8333 12.3637 10.8333C12.8162 10.8333 13.1717 11.2 13.1717 11.6667C13.1717 12.1333 12.8162 12.5 12.3637 12.5ZM12.3637 9.16667H11.5556C11.1031 9.16667 10.7475 8.8 10.7475 8.33333C10.7475 7.86667 11.1031 7.5 11.5556 7.5C11.5556 7.5 12.1051 7.5 12.3637 7.5C12.8162 7.5 13.1717 7.86667 13.1717 8.33333C13.1717 8.8 12.8162 9.16667 12.3637 9.16667Z" fill="#31a7ff"/>
</svg>
